<svg width="484" height="465" viewBox="0 0 484 465" fill="none" xmlns="http://www.w3.org/2000/svg">
<g filter="url(#filter0_d_25_199)">
<path d="M404 228.5C404 262.419 393.942 295.577 375.097 323.78C356.252 351.983 329.468 373.965 298.13 386.945C266.793 399.926 232.31 403.322 199.042 396.705C165.774 390.087 135.216 373.754 111.231 349.769C87.2465 325.784 70.9127 295.226 64.2953 261.958C57.678 228.69 61.0742 194.207 74.0547 162.87C87.0351 131.532 109.017 104.748 137.22 85.903C165.423 67.0583 198.581 57 232.5 57V128.637C212.749 128.637 193.442 134.494 177.019 145.467C160.597 156.44 147.797 172.037 140.239 190.284C132.681 208.532 130.703 228.611 134.556 247.982C138.41 267.354 147.92 285.147 161.887 299.113C175.853 313.079 193.646 322.59 213.018 326.444C232.389 330.297 252.468 328.319 270.716 320.761C288.963 313.203 304.56 300.403 315.533 283.981C326.506 267.558 332.363 248.251 332.363 228.5H404Z" fill="#90A087" fill-opacity="0.2" shape-rendering="crispEdges"/>
</g>
<path d="M233.5 91C251.163 91 268.653 94.4789 284.971 101.238C301.289 107.997 316.116 117.905 328.606 130.394C341.095 142.884 351.003 157.711 357.762 174.029C364.521 190.347 368 207.837 368 225.5L333.456 225.5C333.456 212.374 330.871 199.376 325.848 187.248C320.824 175.121 313.462 164.102 304.18 154.82C294.898 145.538 283.879 138.176 271.752 133.152C259.624 128.129 246.626 125.544 233.5 125.544V91Z" fill="#FFB948" fill-opacity="0.5"/>
<path d="M233.5 94.4929C233.5 92.5638 235.064 90.9953 236.993 91.0454C253.465 91.4732 269.729 94.9248 284.971 101.238C301.289 107.997 316.116 117.905 328.606 130.394C341.095 142.884 351.003 157.711 357.762 174.029C364.075 189.271 367.527 205.535 367.955 222.007C368.005 223.936 366.436 225.5 364.507 225.5C362.578 225.5 361.019 223.936 360.966 222.007C360.54 206.453 357.27 191.097 351.308 176.702C344.9 161.232 335.507 147.175 323.666 135.334C311.825 123.493 297.768 114.1 282.298 107.692C267.903 101.73 252.547 98.4598 236.993 98.0336C235.064 97.9808 233.5 96.4219 233.5 94.4929Z" fill="url(#paint0_linear_25_199)"/>
<path d="M99 225.5C99 243.163 102.479 260.653 109.238 276.971C115.997 293.289 125.905 308.116 138.394 320.606C150.884 333.095 165.711 343.003 182.029 349.762C198.347 356.521 215.837 360 233.5 360C251.163 360 268.653 356.521 284.971 349.762C301.289 343.003 316.116 333.095 328.606 320.606C341.095 308.116 351.003 293.289 357.762 276.971C364.521 260.653 368 243.163 368 225.5H333.566C333.566 238.641 330.978 251.653 325.949 263.794C320.92 275.934 313.549 286.965 304.257 296.257C294.965 305.549 283.934 312.92 271.794 317.949C259.653 322.978 246.641 325.566 233.5 325.566C220.359 325.566 207.347 322.978 195.206 317.949C183.066 312.92 172.035 305.549 162.743 296.257C153.451 286.965 146.08 275.934 141.051 263.794C136.022 251.653 133.434 238.641 133.434 225.5H99Z" fill="#885AF8" fill-opacity="0.5"/>
<path d="M147.719 185.072C144.748 183.697 141.207 184.986 140.008 188.033C131.639 209.311 130.717 232.865 137.503 254.822C144.289 276.779 158.34 295.707 177.255 308.553C179.964 310.392 183.615 309.458 185.292 306.646C186.97 303.835 186.037 300.211 183.342 298.351C166.937 287.022 154.752 270.478 148.831 251.321C142.911 232.165 143.638 211.63 150.79 193.021C151.965 189.965 150.691 186.447 147.719 185.072Z" fill="url(#paint1_linear_25_199)"/>
<path d="M192.76 227.15H187.09V232.97H183.13V227.15H177.46V223.49H183.13V217.67H187.09V223.49H192.76V227.15ZM196.865 219.89C196.965 217.89 197.665 216.35 198.965 215.27C200.285 214.17 202.015 213.62 204.155 213.62C205.615 213.62 206.865 213.88 207.905 214.4C208.945 214.9 209.725 215.59 210.245 216.47C210.785 217.33 211.055 218.31 211.055 219.41C211.055 220.67 210.725 221.74 210.065 222.62C209.425 223.48 208.655 224.06 207.755 224.36V224.48C208.915 224.84 209.815 225.48 210.455 226.4C211.115 227.32 211.445 228.5 211.445 229.94C211.445 231.14 211.165 232.21 210.605 233.15C210.065 234.09 209.255 234.83 208.175 235.37C207.115 235.89 205.835 236.15 204.335 236.15C202.075 236.15 200.235 235.58 198.815 234.44C197.395 233.3 196.645 231.62 196.565 229.4H200.645C200.685 230.38 201.015 231.17 201.635 231.77C202.275 232.35 203.145 232.64 204.245 232.64C205.265 232.64 206.045 232.36 206.585 231.8C207.145 231.22 207.425 230.48 207.425 229.58C207.425 228.38 207.045 227.52 206.285 227C205.525 226.48 204.345 226.22 202.745 226.22H201.875V222.77H202.745C205.585 222.77 207.005 221.82 207.005 219.92C207.005 219.06 206.745 218.39 206.225 217.91C205.725 217.43 204.995 217.19 204.035 217.19C203.095 217.19 202.365 217.45 201.845 217.97C201.345 218.47 201.055 219.11 200.975 219.89H196.865ZM216.084 231.26C218.004 229.66 219.534 228.33 220.674 227.27C221.814 226.19 222.764 225.07 223.524 223.91C224.284 222.75 224.664 221.61 224.664 220.49C224.664 219.47 224.424 218.67 223.944 218.09C223.464 217.51 222.724 217.22 221.724 217.22C220.724 217.22 219.954 217.56 219.414 218.24C218.874 218.9 218.594 219.81 218.574 220.97H214.494C214.574 218.57 215.284 216.75 216.624 215.51C217.984 214.27 219.704 213.65 221.784 213.65C224.064 213.65 225.814 214.26 227.034 215.48C228.254 216.68 228.864 218.27 228.864 220.25C228.864 221.81 228.444 223.3 227.604 224.72C226.764 226.14 225.804 227.38 224.724 228.44C223.644 229.48 222.234 230.74 220.494 232.22H229.344V235.7H214.524V232.58L216.084 231.26ZM237.06 231.59L233.55 240.02H230.85L232.8 231.59H237.06ZM243.268 224.42C241.268 223.38 240.268 221.77 240.268 219.59C240.268 218.51 240.538 217.53 241.078 216.65C241.638 215.75 242.468 215.04 243.568 214.52C244.688 213.98 246.048 213.71 247.648 213.71C249.248 213.71 250.598 213.98 251.698 214.52C252.818 215.04 253.648 215.75 254.188 216.65C254.748 217.53 255.028 218.51 255.028 219.59C255.028 220.69 254.758 221.66 254.218 222.5C253.678 223.32 252.958 223.96 252.058 224.42C253.158 224.9 254.018 225.6 254.638 226.52C255.258 227.44 255.568 228.53 255.568 229.79C255.568 231.15 255.218 232.34 254.518 233.36C253.838 234.36 252.898 235.13 251.698 235.67C250.498 236.21 249.148 236.48 247.648 236.48C246.148 236.48 244.798 236.21 243.598 235.67C242.418 235.13 241.478 234.36 240.778 233.36C240.098 232.34 239.758 231.15 239.758 229.79C239.758 228.53 240.068 227.44 240.688 226.52C241.308 225.58 242.168 224.88 243.268 224.42ZM250.948 220.19C250.948 219.21 250.648 218.45 250.048 217.91C249.468 217.37 248.668 217.1 247.648 217.1C246.648 217.1 245.848 217.37 245.248 217.91C244.668 218.45 244.378 219.22 244.378 220.22C244.378 221.12 244.678 221.84 245.278 222.38C245.898 222.92 246.688 223.19 247.648 223.19C248.608 223.19 249.398 222.92 250.018 222.38C250.638 221.82 250.948 221.09 250.948 220.19ZM247.648 226.25C246.508 226.25 245.578 226.54 244.858 227.12C244.158 227.7 243.808 228.53 243.808 229.61C243.808 230.61 244.148 231.43 244.828 232.07C245.528 232.69 246.468 233 247.648 233C248.828 233 249.758 232.68 250.438 232.04C251.118 231.4 251.458 230.59 251.458 229.61C251.458 228.55 251.108 227.73 250.408 227.15C249.708 226.55 248.788 226.25 247.648 226.25ZM272.805 217.31L264.825 236H260.565L268.605 217.79H258.345V214.19H272.805V217.31ZM275.38 219.89C275.48 217.89 276.18 216.35 277.48 215.27C278.8 214.17 280.53 213.62 282.67 213.62C284.13 213.62 285.38 213.88 286.42 214.4C287.46 214.9 288.24 215.59 288.76 216.47C289.3 217.33 289.57 218.31 289.57 219.41C289.57 220.67 289.24 221.74 288.58 222.62C287.94 223.48 287.17 224.06 286.27 224.36V224.48C287.43 224.84 288.33 225.48 288.97 226.4C289.63 227.32 289.96 228.5 289.96 229.94C289.96 231.14 289.68 232.21 289.12 233.15C288.58 234.09 287.77 234.83 286.69 235.37C285.63 235.89 284.35 236.15 282.85 236.15C280.59 236.15 278.75 235.58 277.33 234.44C275.91 233.3 275.16 231.62 275.08 229.4H279.16C279.2 230.38 279.53 231.17 280.15 231.77C280.79 232.35 281.66 232.64 282.76 232.64C283.78 232.64 284.56 232.36 285.1 231.8C285.66 231.22 285.94 230.48 285.94 229.58C285.94 228.38 285.56 227.52 284.8 227C284.04 226.48 282.86 226.22 281.26 226.22H280.39V222.77H281.26C284.1 222.77 285.52 221.82 285.52 219.92C285.52 219.06 285.26 218.39 284.74 217.91C284.24 217.43 283.51 217.19 282.55 217.19C281.61 217.19 280.88 217.45 280.36 217.97C279.86 218.47 279.57 219.11 279.49 219.89H275.38Z" fill="black"/>
<path d="M203.336 243.27V244.572H200.746V253H199.15V244.572H196.546V243.27H203.336ZM208.298 253.126C207.57 253.126 206.912 252.963 206.324 252.636C205.736 252.3 205.274 251.833 204.938 251.236C204.602 250.629 204.434 249.929 204.434 249.136C204.434 248.352 204.607 247.657 204.952 247.05C205.298 246.443 205.769 245.977 206.366 245.65C206.964 245.323 207.631 245.16 208.368 245.16C209.106 245.16 209.773 245.323 210.37 245.65C210.968 245.977 211.439 246.443 211.784 247.05C212.13 247.657 212.302 248.352 212.302 249.136C212.302 249.92 212.125 250.615 211.77 251.222C211.416 251.829 210.93 252.3 210.314 252.636C209.708 252.963 209.036 253.126 208.298 253.126ZM208.298 251.74C208.709 251.74 209.092 251.642 209.446 251.446C209.81 251.25 210.104 250.956 210.328 250.564C210.552 250.172 210.664 249.696 210.664 249.136C210.664 248.576 210.557 248.105 210.342 247.722C210.128 247.33 209.843 247.036 209.488 246.84C209.134 246.644 208.751 246.546 208.34 246.546C207.93 246.546 207.547 246.644 207.192 246.84C206.847 247.036 206.572 247.33 206.366 247.722C206.161 248.105 206.058 248.576 206.058 249.136C206.058 249.967 206.268 250.611 206.688 251.068C207.118 251.516 207.654 251.74 208.298 251.74ZM215.742 246.588V250.858C215.742 251.147 215.807 251.357 215.938 251.488C216.078 251.609 216.311 251.67 216.638 251.67H217.618V253H216.358C215.639 253 215.089 252.832 214.706 252.496C214.323 252.16 214.132 251.614 214.132 250.858V246.588H213.222V245.286H214.132V243.368H215.742V245.286H217.618V246.588H215.742ZM218.557 249.108C218.557 248.333 218.716 247.647 219.033 247.05C219.36 246.453 219.798 245.991 220.349 245.664C220.909 245.328 221.525 245.16 222.197 245.16C222.804 245.16 223.331 245.281 223.779 245.524C224.236 245.757 224.6 246.051 224.871 246.406V245.286H226.481V253H224.871V251.852C224.6 252.216 224.232 252.519 223.765 252.762C223.298 253.005 222.766 253.126 222.169 253.126C221.506 253.126 220.9 252.958 220.349 252.622C219.798 252.277 219.36 251.801 219.033 251.194C218.716 250.578 218.557 249.883 218.557 249.108ZM224.871 249.136C224.871 248.604 224.759 248.142 224.535 247.75C224.32 247.358 224.036 247.059 223.681 246.854C223.326 246.649 222.944 246.546 222.533 246.546C222.122 246.546 221.74 246.649 221.385 246.854C221.03 247.05 220.741 247.344 220.517 247.736C220.302 248.119 220.195 248.576 220.195 249.108C220.195 249.64 220.302 250.107 220.517 250.508C220.741 250.909 221.03 251.217 221.385 251.432C221.749 251.637 222.132 251.74 222.533 251.74C222.944 251.74 223.326 251.637 223.681 251.432C224.036 251.227 224.32 250.928 224.535 250.536C224.759 250.135 224.871 249.668 224.871 249.136ZM230.173 242.64V253H228.577V242.64H230.173ZM242.709 246.168C242.709 246.663 242.593 247.129 242.359 247.568C242.126 248.007 241.753 248.366 241.239 248.646C240.726 248.917 240.068 249.052 239.265 249.052H237.501V253H235.905V243.27H239.265C240.012 243.27 240.642 243.401 241.155 243.662C241.678 243.914 242.065 244.259 242.317 244.698C242.579 245.137 242.709 245.627 242.709 246.168ZM239.265 247.75C239.872 247.75 240.325 247.615 240.623 247.344C240.922 247.064 241.071 246.672 241.071 246.168C241.071 245.104 240.469 244.572 239.265 244.572H237.501V247.75H239.265ZM245.828 246.406C246.061 246.014 246.369 245.711 246.752 245.496C247.144 245.272 247.606 245.16 248.138 245.16V246.812H247.732C247.106 246.812 246.63 246.971 246.304 247.288C245.986 247.605 245.828 248.156 245.828 248.94V253H244.232V245.286H245.828V246.406ZM252.951 253.126C252.223 253.126 251.565 252.963 250.977 252.636C250.389 252.3 249.927 251.833 249.591 251.236C249.255 250.629 249.087 249.929 249.087 249.136C249.087 248.352 249.259 247.657 249.605 247.05C249.95 246.443 250.421 245.977 251.019 245.65C251.616 245.323 252.283 245.16 253.021 245.16C253.758 245.16 254.425 245.323 255.023 245.65C255.62 245.977 256.091 246.443 256.437 247.05C256.782 247.657 256.955 248.352 256.955 249.136C256.955 249.92 256.777 250.615 256.423 251.222C256.068 251.829 255.583 252.3 254.967 252.636C254.36 252.963 253.688 253.126 252.951 253.126ZM252.951 251.74C253.361 251.74 253.744 251.642 254.099 251.446C254.463 251.25 254.757 250.956 254.981 250.564C255.205 250.172 255.317 249.696 255.317 249.136C255.317 248.576 255.209 248.105 254.995 247.722C254.78 247.33 254.495 247.036 254.141 246.84C253.786 246.644 253.403 246.546 252.993 246.546C252.582 246.546 252.199 246.644 251.845 246.84C251.499 247.036 251.224 247.33 251.019 247.722C250.813 248.105 250.711 248.576 250.711 249.136C250.711 249.967 250.921 250.611 251.341 251.068C251.77 251.516 252.307 251.74 252.951 251.74ZM261.766 246.588H260.338V253H258.728V246.588H257.818V245.286H258.728V244.74C258.728 243.853 258.962 243.209 259.428 242.808C259.904 242.397 260.646 242.192 261.654 242.192V243.522C261.169 243.522 260.828 243.615 260.632 243.802C260.436 243.979 260.338 244.292 260.338 244.74V245.286H261.766V246.588ZM263.993 244.264C263.704 244.264 263.461 244.166 263.265 243.97C263.069 243.774 262.971 243.531 262.971 243.242C262.971 242.953 263.069 242.71 263.265 242.514C263.461 242.318 263.704 242.22 263.993 242.22C264.273 242.22 264.511 242.318 264.707 242.514C264.903 242.71 265.001 242.953 265.001 243.242C265.001 243.531 264.903 243.774 264.707 243.97C264.511 244.166 264.273 244.264 263.993 244.264ZM264.777 245.286V253H263.181V245.286H264.777ZM268.734 246.588V250.858C268.734 251.147 268.8 251.357 268.93 251.488C269.07 251.609 269.304 251.67 269.63 251.67H270.61V253H269.35C268.632 253 268.081 252.832 267.698 252.496C267.316 252.16 267.124 251.614 267.124 250.858V246.588H266.214V245.286H267.124V243.368H268.734V245.286H270.61V246.588H268.734Z" fill="#90A087"/>
<path d="M420 214C420 209.029 424.029 205 429 205H475C479.971 205 484 209.029 484 214V230C484 234.971 479.971 239 475 239H429C424.029 239 420 234.971 420 230V214Z" fill="#FF4848"/>
<path d="M434.919 226.52C434.699 226.52 434.529 226.46 434.409 226.34C434.289 226.21 434.229 226.035 434.229 225.815V223.355H431.814C431.604 223.355 431.439 223.3 431.319 223.19C431.199 223.07 431.139 222.905 431.139 222.695C431.139 222.485 431.199 222.325 431.319 222.215C431.439 222.095 431.604 222.035 431.814 222.035H434.229V219.65C434.229 219.43 434.289 219.26 434.409 219.14C434.529 219.02 434.704 218.96 434.934 218.96C435.154 218.96 435.319 219.02 435.429 219.14C435.549 219.26 435.609 219.43 435.609 219.65V222.035H438.024C438.244 222.035 438.409 222.095 438.519 222.215C438.639 222.325 438.699 222.485 438.699 222.695C438.699 222.905 438.639 223.07 438.519 223.19C438.409 223.3 438.244 223.355 438.024 223.355H435.609V225.815C435.609 226.035 435.549 226.21 435.429 226.34C435.319 226.46 435.149 226.52 434.919 226.52ZM443.703 227.15C443.163 227.15 442.603 227.08 442.023 226.94C441.443 226.8 440.938 226.59 440.508 226.31C440.308 226.18 440.173 226.03 440.103 225.86C440.033 225.69 440.013 225.53 440.043 225.38C440.083 225.22 440.158 225.085 440.268 224.975C440.388 224.865 440.533 224.8 440.703 224.78C440.883 224.76 441.078 224.805 441.288 224.915C441.698 225.135 442.093 225.295 442.473 225.395C442.853 225.485 443.243 225.53 443.643 225.53C444.083 225.53 444.453 225.47 444.753 225.35C445.053 225.23 445.278 225.05 445.428 224.81C445.588 224.57 445.668 224.28 445.668 223.94C445.668 223.44 445.498 223.07 445.158 222.83C444.828 222.58 444.343 222.455 443.703 222.455H442.743C442.463 222.455 442.248 222.385 442.098 222.245C441.958 222.105 441.888 221.91 441.888 221.66C441.888 221.41 441.958 221.215 442.098 221.075C442.248 220.935 442.463 220.865 442.743 220.865H443.523C443.903 220.865 444.228 220.805 444.498 220.685C444.768 220.555 444.978 220.375 445.128 220.145C445.278 219.915 445.353 219.635 445.353 219.305C445.353 218.845 445.198 218.495 444.888 218.255C444.588 218.015 444.148 217.895 443.568 217.895C443.198 217.895 442.848 217.94 442.518 218.03C442.198 218.11 441.843 218.265 441.453 218.495C441.273 218.605 441.098 218.65 440.928 218.63C440.768 218.61 440.633 218.545 440.523 218.435C440.413 218.325 440.338 218.195 440.298 218.045C440.258 217.885 440.268 217.725 440.328 217.565C440.388 217.395 440.513 217.25 440.703 217.13C441.133 216.85 441.608 216.64 442.128 216.5C442.648 216.35 443.183 216.275 443.733 216.275C444.463 216.275 445.088 216.39 445.608 216.62C446.128 216.84 446.523 217.16 446.793 217.58C447.073 217.99 447.213 218.49 447.213 219.08C447.213 219.5 447.133 219.885 446.973 220.235C446.813 220.575 446.588 220.865 446.298 221.105C446.008 221.345 445.658 221.515 445.248 221.615V221.435C445.968 221.555 446.528 221.855 446.928 222.335C447.328 222.805 447.528 223.395 447.528 224.105C447.528 224.725 447.373 225.265 447.063 225.725C446.753 226.185 446.313 226.54 445.743 226.79C445.173 227.03 444.493 227.15 443.703 227.15ZM452.907 227.15C451.657 227.15 450.702 226.68 450.042 225.74C449.382 224.79 449.052 223.44 449.052 221.69C449.052 220.51 449.197 219.52 449.487 218.72C449.787 217.91 450.222 217.3 450.792 216.89C451.372 216.48 452.077 216.275 452.907 216.275C454.167 216.275 455.122 216.735 455.772 217.655C456.432 218.575 456.762 219.915 456.762 221.675C456.762 222.845 456.612 223.84 456.312 224.66C456.022 225.47 455.592 226.09 455.022 226.52C454.452 226.94 453.747 227.15 452.907 227.15ZM452.907 225.575C453.587 225.575 454.087 225.26 454.407 224.63C454.737 224 454.902 223.015 454.902 221.675C454.902 220.335 454.737 219.365 454.407 218.765C454.087 218.155 453.587 217.85 452.907 217.85C452.237 217.85 451.737 218.155 451.407 218.765C451.077 219.365 450.912 220.335 450.912 221.675C450.912 223.015 451.077 224 451.407 224.63C451.737 225.26 452.237 225.575 452.907 225.575ZM462.336 226.88C462.236 227.06 462.111 227.175 461.961 227.225C461.821 227.285 461.676 227.295 461.526 227.255C461.386 227.225 461.266 227.155 461.166 227.045C461.066 226.945 461.006 226.82 460.986 226.67C460.966 226.51 461.006 226.34 461.106 226.16L466.641 216.56C466.741 216.38 466.861 216.26 467.001 216.2C467.151 216.14 467.296 216.13 467.436 216.17C467.576 216.2 467.696 216.27 467.796 216.38C467.896 216.49 467.956 216.625 467.976 216.785C468.006 216.935 467.971 217.095 467.871 217.265L462.336 226.88ZM460.731 222.74C459.891 222.74 459.236 222.45 458.766 221.87C458.296 221.29 458.061 220.5 458.061 219.5C458.061 218.83 458.166 218.255 458.376 217.775C458.586 217.295 458.891 216.925 459.291 216.665C459.691 216.405 460.171 216.275 460.731 216.275C461.571 216.275 462.226 216.565 462.696 217.145C463.166 217.715 463.401 218.5 463.401 219.5C463.401 220.17 463.296 220.75 463.086 221.24C462.876 221.72 462.571 222.09 462.171 222.35C461.771 222.61 461.291 222.74 460.731 222.74ZM460.731 221.48C460.971 221.48 461.176 221.41 461.346 221.27C461.516 221.12 461.646 220.9 461.736 220.61C461.826 220.32 461.871 219.95 461.871 219.5C461.871 218.83 461.771 218.335 461.571 218.015C461.371 217.695 461.091 217.535 460.731 217.535C460.491 217.535 460.286 217.605 460.116 217.745C459.946 217.885 459.816 218.1 459.726 218.39C459.636 218.68 459.591 219.05 459.591 219.5C459.591 220.18 459.691 220.68 459.891 221C460.091 221.32 460.371 221.48 460.731 221.48ZM468.261 227.15C467.421 227.15 466.766 226.86 466.296 226.28C465.826 225.7 465.591 224.91 465.591 223.91C465.591 223.24 465.696 222.665 465.906 222.185C466.116 221.705 466.421 221.335 466.821 221.075C467.221 220.815 467.701 220.685 468.261 220.685C469.101 220.685 469.756 220.975 470.226 221.555C470.696 222.125 470.931 222.91 470.931 223.91C470.931 224.58 470.826 225.16 470.616 225.65C470.406 226.13 470.101 226.5 469.701 226.76C469.301 227.02 468.821 227.15 468.261 227.15ZM468.261 225.89C468.501 225.89 468.706 225.82 468.876 225.68C469.046 225.54 469.176 225.325 469.266 225.035C469.356 224.735 469.401 224.36 469.401 223.91C469.401 223.24 469.301 222.745 469.101 222.425C468.901 222.105 468.621 221.945 468.261 221.945C468.021 221.945 467.816 222.015 467.646 222.155C467.476 222.295 467.346 222.51 467.256 222.8C467.166 223.09 467.121 223.46 467.121 223.91C467.121 224.59 467.221 225.09 467.421 225.41C467.621 225.73 467.901 225.89 468.261 225.89Z" fill="white"/>
<line x1="366" y1="225.5" x2="419" y2="225.5" stroke="#FF4848" stroke-dasharray="5 5"/>
<defs>
<filter id="filter0_d_25_199" x="-7.62939e-05" y="0" width="465" height="465" filterUnits="userSpaceOnUse" color-interpolation-filters="sRGB">
<feFlood flood-opacity="0" result="BackgroundImageFix"/>
<feColorMatrix in="SourceAlpha" type="matrix" values="0 0 0 0 0 0 0 0 0 0 0 0 0 0 0 0 0 0 127 0" result="hardAlpha"/>
<feOffset dy="4"/>
<feGaussianBlur stdDeviation="30.5"/>
<feComposite in2="hardAlpha" operator="out"/>
<feColorMatrix type="matrix" values="0 0 0 0 0 0 0 0 0 0 0 0 0 0 0 0 0 0 0.25 0"/>
<feBlend mode="normal" in2="BackgroundImageFix" result="effect1_dropShadow_25_199"/>
<feBlend mode="normal" in="SourceGraphic" in2="effect1_dropShadow_25_199" result="shape"/>
</filter>
<linearGradient id="paint0_linear_25_199" x1="233.5" y1="91" x2="233.5" y2="360" gradientUnits="userSpaceOnUse">
<stop stop-color="#FF4848"/>
<stop offset="1" stop-color="#FF4848" stop-opacity="0"/>
</linearGradient>
<linearGradient id="paint1_linear_25_199" x1="234" y1="124" x2="234" y2="326" gradientUnits="userSpaceOnUse">
<stop stop-color="#00FF66"/>
<stop offset="1" stop-color="#885AF8" stop-opacity="0"/>
</linearGradient>
</defs>
</svg>
