<svg width="20" height="20" viewBox="0 0 20 20" fill="none" xmlns="http://www.w3.org/2000/svg">
<g clip-path="url(#clip0_3_1852)">
<path d="M17.5 17.75C17.5 17 20 15.5 20 13.875C20 12 18.25 10.5 16.125 9.875C17 8.875 17.5 7.75 17.5 6.375C17.5 2.875 13.875 0 9.25 0C4.875 0 0 2.625 0 6.375C0 9 2 10.875 2.875 11.625C2.75 13.125 2.125 13.75 2.125 13.75L0.625 15H2.5C4.5 15 6.125 14.375 7.125 13.625V13.875C7.125 16.375 9.875 18.375 13.375 18.375H14.125C14.625 19 16.25 20.125 18.375 20.125C18.5 20 17.5 19.5 17.5 17.75ZM9.25 1.25C13.125 1.25 16.25 3.625 16.25 6.375C16.25 9.125 13 11.5 9 11.5H7.625L7.5 11.75C7.125 12.25 5.625 13.25 3.625 13.625C3.75 13.125 3.75 12.375 3.75 11.375V11C2.5 10 1.125 8.25 1.125 6.5C1.125 3.75 5.125 1.25 9.25 1.25Z" fill="#90A087"/>
</g>
<defs>
<clipPath id="clip0_3_1852">
<rect width="20" height="20" fill="white"/>
</clipPath>
</defs>
</svg>
