<svg width="36" height="36" viewBox="0 0 36 36" fill="none" xmlns="http://www.w3.org/2000/svg">
<path d="M7.93955 7.9395C8.22084 7.65829 8.6023 7.50032 9.00005 7.50032C9.39779 7.50032 9.77925 7.65829 10.0605 7.9395L18 15.879L25.9395 7.9395C26.0779 7.79623 26.2434 7.68196 26.4264 7.60335C26.6094 7.52473 26.8063 7.48335 27.0054 7.48162C27.2046 7.47989 27.4021 7.51785 27.5865 7.59327C27.7708 7.66869 27.9383 7.78007 28.0791 7.92091C28.22 8.06175 28.3314 8.22922 28.4068 8.41357C28.4822 8.59791 28.5202 8.79543 28.5184 8.9946C28.5167 9.19377 28.4753 9.3906 28.3967 9.57361C28.3181 9.75661 28.2038 9.92213 28.0605 10.0605L20.121 18L28.0605 25.9395C28.3338 26.2224 28.485 26.6013 28.4816 26.9946C28.4781 27.3879 28.3204 27.7641 28.0423 28.0422C27.7642 28.3203 27.3879 28.4781 26.9946 28.4815C26.6014 28.4849 26.2224 28.3337 25.9395 28.0605L18 20.121L10.0605 28.0605C9.77764 28.3337 9.39874 28.4849 9.00544 28.4815C8.61215 28.4781 8.23593 28.3203 7.95782 28.0422C7.67971 27.7641 7.52195 27.3879 7.51853 26.9946C7.51512 26.6013 7.66631 26.2224 7.93955 25.9395L15.879 18L7.93955 10.0605C7.65834 9.77921 7.50037 9.39775 7.50037 9C7.50037 8.60225 7.65834 8.22079 7.93955 7.9395Z" fill="white"/>
</svg>
