<svg width="20" height="21" viewBox="0 0 20 21" fill="none" xmlns="http://www.w3.org/2000/svg">
<path fill-rule="evenodd" clip-rule="evenodd" d="M4.44444 1.61111H1.11111V4.94444H4.44444V1.61111ZM1.11111 0.5C0.816426 0.5 0.533811 0.617063 0.325437 0.825437C0.117063 1.03381 0 1.31643 0 1.61111V4.94444C0 5.23913 0.117063 5.52175 0.325437 5.73012C0.533811 5.93849 0.816426 6.05556 1.11111 6.05556H4.44444C4.73913 6.05556 5.02175 5.93849 5.23012 5.73012C5.43849 5.52175 5.55556 5.23913 5.55556 4.94444V1.61111C5.55556 1.31643 5.43849 1.03381 5.23012 0.825437C5.02175 0.617063 4.73913 0.5 4.44444 0.5H1.11111ZM4.44444 8.83333H1.11111V12.1667H4.44444V8.83333ZM1.11111 7.72222C0.816426 7.72222 0.533811 7.83929 0.325437 8.04766C0.117063 8.25603 0 8.53865 0 8.83333V12.1667C0 12.4614 0.117063 12.744 0.325437 12.9523C0.533811 13.1607 0.816426 13.2778 1.11111 13.2778H4.44444C4.73913 13.2778 5.02175 13.1607 5.23012 12.9523C5.43849 12.744 5.55556 12.4614 5.55556 12.1667V8.83333C5.55556 8.53865 5.43849 8.25603 5.23012 8.04766C5.02175 7.83929 4.73913 7.72222 4.44444 7.72222H1.11111ZM4.44444 16.0556H1.11111V19.3889H4.44444V16.0556ZM1.11111 14.9444C0.816426 14.9444 0.533811 15.0615 0.325437 15.2699C0.117063 15.4783 0 15.7609 0 16.0556V19.3889C0 19.6836 0.117063 19.9662 0.325437 20.1746C0.533811 20.3829 0.816426 20.5 1.11111 20.5H4.44444C4.73913 20.5 5.02175 20.3829 5.23012 20.1746C5.43849 19.9662 5.55556 19.6836 5.55556 19.3889V16.0556C5.55556 15.7609 5.43849 15.4783 5.23012 15.2699C5.02175 15.0615 4.73913 14.9444 4.44444 14.9444H1.11111ZM11.6667 1.61111H8.33333V4.94444H11.6667V1.61111ZM8.33333 0.5C8.03865 0.5 7.75603 0.617063 7.54766 0.825437C7.33929 1.03381 7.22222 1.31643 7.22222 1.61111V4.94444C7.22222 5.23913 7.33929 5.52175 7.54766 5.73012C7.75603 5.93849 8.03865 6.05556 8.33333 6.05556H11.6667C11.9614 6.05556 12.244 5.93849 12.4523 5.73012C12.6607 5.52175 12.7778 5.23913 12.7778 4.94444V1.61111C12.7778 1.31643 12.6607 1.03381 12.4523 0.825437C12.244 0.617063 11.9614 0.5 11.6667 0.5H8.33333ZM11.6667 8.83333H8.33333V12.1667H11.6667V8.83333ZM8.33333 7.72222C8.03865 7.72222 7.75603 7.83929 7.54766 8.04766C7.33929 8.25603 7.22222 8.53865 7.22222 8.83333V12.1667C7.22222 12.4614 7.33929 12.744 7.54766 12.9523C7.75603 13.1607 8.03865 13.2778 8.33333 13.2778H11.6667C11.9614 13.2778 12.244 13.1607 12.4523 12.9523C12.6607 12.744 12.7778 12.4614 12.7778 12.1667V8.83333C12.7778 8.53865 12.6607 8.25603 12.4523 8.04766C12.244 7.83929 11.9614 7.72222 11.6667 7.72222H8.33333ZM11.6667 16.0556H8.33333V19.3889H11.6667V16.0556ZM8.33333 14.9444C8.03865 14.9444 7.75603 15.0615 7.54766 15.2699C7.33929 15.4783 7.22222 15.7609 7.22222 16.0556V19.3889C7.22222 19.6836 7.33929 19.9662 7.54766 20.1746C7.75603 20.3829 8.03865 20.5 8.33333 20.5H11.6667C11.9614 20.5 12.244 20.3829 12.4523 20.1746C12.6607 19.9662 12.7778 19.6836 12.7778 19.3889V16.0556C12.7778 15.7609 12.6607 15.4783 12.4523 15.2699C12.244 15.0615 11.9614 14.9444 11.6667 14.9444H8.33333ZM18.8889 1.61111H15.5556V4.94444H18.8889V1.61111ZM15.5556 0.5C15.2609 0.5 14.9783 0.617063 14.7699 0.825437C14.5615 1.03381 14.4444 1.31643 14.4444 1.61111V4.94444C14.4444 5.23913 14.5615 5.52175 14.7699 5.73012C14.9783 5.93849 15.2609 6.05556 15.5556 6.05556H18.8889C19.1836 6.05556 19.4662 5.93849 19.6746 5.73012C19.8829 5.52175 20 5.23913 20 4.94444V1.61111C20 1.31643 19.8829 1.03381 19.6746 0.825437C19.4662 0.617063 19.1836 0.5 18.8889 0.5H15.5556ZM18.8889 8.83333H15.5556V12.1667H18.8889V8.83333ZM15.5556 7.72222C15.2609 7.72222 14.9783 7.83929 14.7699 8.04766C14.5615 8.25603 14.4444 8.53865 14.4444 8.83333V12.1667C14.4444 12.4614 14.5615 12.744 14.7699 12.9523C14.9783 13.1607 15.2609 13.2778 15.5556 13.2778H18.8889C19.1836 13.2778 19.4662 13.1607 19.6746 12.9523C19.8829 12.744 20 12.4614 20 12.1667V8.83333C20 8.53865 19.8829 8.25603 19.6746 8.04766C19.4662 7.83929 19.1836 7.72222 18.8889 7.72222H15.5556ZM18.8889 16.0556H15.5556V19.3889H18.8889V16.0556ZM15.5556 14.9444C15.2609 14.9444 14.9783 15.0615 14.7699 15.2699C14.5615 15.4783 14.4444 15.7609 14.4444 16.0556V19.3889C14.4444 19.6836 14.5615 19.9662 14.7699 20.1746C14.9783 20.3829 15.2609 20.5 15.5556 20.5H18.8889C19.1836 20.5 19.4662 20.3829 19.6746 20.1746C19.8829 19.9662 20 19.6836 20 19.3889V16.0556C20 15.7609 19.8829 15.4783 19.6746 15.2699C19.4662 15.0615 19.1836 14.9444 18.8889 14.9444H15.5556Z" fill="black"/>
</svg>
