<svg width="75" height="34" viewBox="0 0 75 34" fill="none" xmlns="http://www.w3.org/2000/svg">
<path fill-rule="evenodd" clip-rule="evenodd" d="M74.9999 1.70695C74.9949 1.2532 74.7595 0.854313 74.2938 0.510289C73.828 0.166265 73.2932 -0.00381119 72.6892 6.32582e-05C72.0853 0.0039377 71.5543 0.180851 71.0963 0.530801L59.9989 9.01035L53.013 3.84999C52.5845 3.53135 52.0591 3.38097 51.4368 3.39884C50.8145 3.41671 50.3099 3.6004 49.923 3.94989L37.3635 14.7852C37.3253 14.8144 37.2881 14.845 37.2518 14.8772L23.6088 26.4483L16.5741 21.1632C16.1478 20.8429 15.6504 20.6827 15.0819 20.6827C14.5135 20.6827 14.0161 20.8429 13.5897 21.1632L0.692809 30.8525C0.230936 31.1995 0 31.5999 0 32.0536C0 32.5074 0.230936 32.9078 0.692809 33.2548C1.15468 33.6018 1.68761 33.7753 2.2916 33.7753C2.89559 33.7753 3.42852 33.6018 3.89039 33.2548L15.0819 24.8467L22.01 30.0517C22.435 30.3731 22.9586 30.5268 23.5811 30.513C24.2036 30.4991 24.7102 30.3186 25.101 29.9716L37.6097 19.3625C37.7283 19.2943 37.8387 19.2141 37.9409 19.1218L51.4544 7.46357L58.5478 12.7033C58.9777 13.0209 59.4768 13.1778 60.0453 13.1742C60.6137 13.1705 61.1093 13.0072 61.5321 12.6842L74.3205 2.91251C74.7785 2.56256 75.005 2.1607 74.9999 1.70695Z" fill="#2ED47A"/>
</svg>
