<svg width="20" height="21" viewBox="0 0 20 21" fill="none" xmlns="http://www.w3.org/2000/svg">
<path d="M20 0.5H0V6.81579H1V18.3947C1 18.9531 1.21071 19.4886 1.58579 19.8834C1.96086 20.2782 2.46957 20.5 3 20.5H17C17.5304 20.5 18.0391 20.2782 18.4142 19.8834C18.7893 19.4886 19 18.9531 19 18.3947V6.81579H20V0.5ZM2 2.60526H18V4.71053H2V2.60526ZM17 18.3947H3V6.81579H17V18.3947ZM7 8.92105H13C13 9.4794 12.7893 10.0149 12.4142 10.4097C12.0391 10.8045 11.5304 11.0263 11 11.0263H9C8.46957 11.0263 7.96086 10.8045 7.58579 10.4097C7.21071 10.0149 7 9.4794 7 8.92105Z" fill="black"/>
</svg>
