<svg width="20" height="21" viewBox="0 0 20 21" fill="none" xmlns="http://www.w3.org/2000/svg">
<path d="M10 4.5C9.73478 4.5 9.48043 4.60536 9.29289 4.79289C9.10536 4.98043 9 5.23478 9 5.5V15.5C9 15.7652 9.10536 16.0196 9.29289 16.2071C9.48043 16.3946 9.73478 16.5 10 16.5C10.2652 16.5 10.5196 16.3946 10.7071 16.2071C10.8946 16.0196 11 15.7652 11 15.5V5.5C11 5.23478 10.8946 4.98043 10.7071 4.79289C10.5196 4.60536 10.2652 4.5 10 4.5ZM5 10.5C4.73478 10.5 4.48043 10.6054 4.29289 10.7929C4.10536 10.9804 4 11.2348 4 11.5V15.5C4 15.7652 4.10536 16.0196 4.29289 16.2071C4.48043 16.3946 4.73478 16.5 5 16.5C5.26522 16.5 5.51957 16.3946 5.70711 16.2071C5.89464 16.0196 6 15.7652 6 15.5V11.5C6 11.2348 5.89464 10.9804 5.70711 10.7929C5.51957 10.6054 5.26522 10.5 5 10.5ZM15 8.5C14.7348 8.5 14.4804 8.60536 14.2929 8.79289C14.1054 8.98043 14 9.23478 14 9.5V15.5C14 15.7652 14.1054 16.0196 14.2929 16.2071C14.4804 16.3946 14.7348 16.5 15 16.5C15.2652 16.5 15.5196 16.3946 15.7071 16.2071C15.8946 16.0196 16 15.7652 16 15.5V9.5C16 9.23478 15.8946 8.98043 15.7071 8.79289C15.5196 8.60536 15.2652 8.5 15 8.5ZM17 0.5H3C2.20435 0.5 1.44129 0.816071 0.87868 1.37868C0.316071 1.94129 0 2.70435 0 3.5V17.5C0 18.2956 0.316071 19.0587 0.87868 19.6213C1.44129 20.1839 2.20435 20.5 3 20.5H17C17.7956 20.5 18.5587 20.1839 19.1213 19.6213C19.6839 19.0587 20 18.2956 20 17.5V3.5C20 2.70435 19.6839 1.94129 19.1213 1.37868C18.5587 0.816071 17.7956 0.5 17 0.5ZM18 17.5C18 17.7652 17.8946 18.0196 17.7071 18.2071C17.5196 18.3946 17.2652 18.5 17 18.5H3C2.73478 18.5 2.48043 18.3946 2.29289 18.2071C2.10536 18.0196 2 17.7652 2 17.5V3.5C2 3.23478 2.10536 2.98043 2.29289 2.79289C2.48043 2.60536 2.73478 2.5 3 2.5H17C17.2652 2.5 17.5196 2.60536 17.7071 2.79289C17.8946 2.98043 18 3.23478 18 3.5V17.5Z" fill="black"/>
</svg>
