<svg width="20" height="21" viewBox="0 0 20 21" fill="none" xmlns="http://www.w3.org/2000/svg">
<path d="M13.125 0.519531L20 3.95703V11.623L18.75 10.998V5.35352L13.75 7.85352V10.373L12.5 10.998V7.85352L7.5 5.35352V7.57031L6.25 6.94531V3.95703L13.125 0.519531ZM13.125 6.76953L14.8535 5.90039L10.332 3.3125L8.27148 4.34766L13.125 6.76953ZM16.2012 5.23633L17.9785 4.34766L13.125 1.91602L11.6699 2.64844L16.2012 5.23633ZM11.25 11.623L10 12.248V12.2383L6.25 14.1133V18.5566L10 16.6719V18.0781L5.625 20.2656L0 17.4434V10.8418L5.625 8.0293L11.25 10.8418V11.623ZM5 18.5566V14.1133L1.25 12.2383V16.6719L5 18.5566ZM5.625 13.0293L9.22852 11.2324L5.625 9.42578L2.02148 11.2324L5.625 13.0293ZM11.25 13.0195L15.625 10.832L20 13.0195V18.166L15.625 20.3535L11.25 18.166V13.0195ZM15 18.6445V15.666L12.5 14.416V17.3945L15 18.6445ZM18.75 17.3945V14.416L16.25 15.666V18.6445L18.75 17.3945ZM15.625 14.582L17.9785 13.4004L15.625 12.2285L13.2715 13.4004L15.625 14.582Z" fill="black"/>
</svg>
