<svg width="25" height="25" viewBox="0 0 25 25" fill="none" xmlns="http://www.w3.org/2000/svg">
<path d="M10.6771 2.08334C12.3104 2.08316 13.9099 2.54843 15.2883 3.42463C16.6666 4.30083 17.7668 5.55168 18.4598 7.03065C19.1528 8.50961 19.41 10.1554 19.2013 11.7753C18.9926 13.3952 18.3266 14.9221 17.2813 16.1771L23.2083 22.1042C23.3112 22.1997 23.3864 22.3211 23.4259 22.4558C23.4655 22.5904 23.4681 22.7332 23.4333 22.8692C23.3986 23.0051 23.3278 23.1292 23.2284 23.2283C23.1291 23.3274 23.0048 23.3979 22.8688 23.4323C22.7329 23.4671 22.5903 23.4647 22.4557 23.4253C22.3212 23.3859 22.1997 23.3109 22.1042 23.2083L16.1771 17.2813C15.1165 18.1643 13.8588 18.779 12.5104 19.0733C11.1621 19.3675 9.76265 19.3327 8.43058 18.9717C7.09852 18.6108 5.87297 17.9343 4.85763 16.9995C3.84228 16.0648 3.06699 14.8992 2.59735 13.6015C2.12771 12.3038 1.97753 10.912 2.15951 9.54393C2.34148 8.17587 2.85027 6.87177 3.64283 5.74192C4.4354 4.61208 5.48841 3.68974 6.71281 3.05292C7.93721 2.41609 9.29698 2.08353 10.6771 2.08334ZM3.64583 10.6771C3.64583 11.6005 3.8277 12.5148 4.18106 13.3678C4.53441 14.2209 5.05233 14.996 5.70524 15.6489C6.35815 16.3019 7.13327 16.8198 7.98634 17.1731C8.83941 17.5265 9.75373 17.7083 10.6771 17.7083C11.6004 17.7083 12.5148 17.5265 13.3678 17.1731C14.2209 16.8198 14.996 16.3019 15.6489 15.6489C16.3018 14.996 16.8198 14.2209 17.1731 13.3678C17.5265 12.5148 17.7083 11.6005 17.7083 10.6771C17.7083 8.81229 16.9675 7.02386 15.6489 5.70525C14.3303 4.38663 12.5419 3.64584 10.6771 3.64584C8.81228 3.64584 7.02385 4.38663 5.70524 5.70525C4.38662 7.02386 3.64583 8.81229 3.64583 10.6771Z" fill="black"/>
</svg>
