<svg width="10" height="17" viewBox="0 0 10 17" fill="none" xmlns="http://www.w3.org/2000/svg">
<path d="M0.457497 16.3837C0.559096 16.4856 0.679793 16.5664 0.812674 16.6216C0.945554 16.6767 1.08801 16.7051 1.23187 16.7051C1.37574 16.7051 1.51819 16.6767 1.65107 16.6216C1.78395 16.5664 1.90465 16.4856 2.00625 16.3837L9.2775 9.1125C9.35861 9.03155 9.42297 8.9354 9.46688 8.82954C9.51078 8.72369 9.53339 8.61022 9.53339 8.49562C9.53339 8.38103 9.51078 8.26755 9.46688 8.1617C9.42297 8.05585 9.35861 7.9597 9.2775 7.87875L2.00625 0.607498C1.5775 0.178747 0.886247 0.178747 0.457497 0.607498C0.0287466 1.03625 0.0287466 1.7275 0.457497 2.15625L6.7925 8.5L0.448749 14.8437C0.0287485 15.2637 0.0287466 15.9637 0.457497 16.3837Z" fill="white"/>
</svg>
