<svg width="24" height="24" viewBox="0 0 24 24" fill="none" xmlns="http://www.w3.org/2000/svg">
<path d="M24 0H0V7.57895H1.2V21.4737C1.2 22.1437 1.45286 22.7863 1.90294 23.2601C2.35303 23.7338 2.96348 24 3.6 24H20.4C21.0365 24 21.647 23.7338 22.0971 23.2601C22.5471 22.7863 22.8 22.1437 22.8 21.4737V7.57895H24V0ZM2.4 2.52632H21.6V5.05263H2.4V2.52632ZM20.4 21.4737H3.6V7.57895H20.4V21.4737ZM8.4 10.1053H15.6C15.6 10.7753 15.3471 11.4179 14.8971 11.8916C14.447 12.3654 13.8365 12.6316 13.2 12.6316H10.8C10.1635 12.6316 9.55303 12.3654 9.10294 11.8916C8.65286 11.4179 8.4 10.7753 8.4 10.1053Z" fill="#FFB948"/>
</svg>
