<svg width="22" height="23" viewBox="0 0 22 23" fill="none" xmlns="http://www.w3.org/2000/svg">
<path d="M16.2833 1.5H5.71667C4.42889 1.5 3.78556 1.5 3.26556 1.663C2.77531 1.81945 2.33173 2.07549 1.96926 2.41124C1.6068 2.74699 1.3352 3.15342 1.17556 3.59895C1 4.08094 1 4.67693 1 5.8699V19.8736C1 20.7316 2.09444 21.1876 2.78667 20.6176C2.98087 20.4561 3.23558 20.3664 3.5 20.3664C3.76442 20.3664 4.01913 20.4561 4.21333 20.6176L4.75 21.0596C5.09023 21.3427 5.53659 21.5 6 21.5C6.46341 21.5 6.90977 21.3427 7.25 21.0596C7.59023 20.7764 8.03659 20.6191 8.5 20.6191C8.96341 20.6191 9.40977 20.7764 9.75 21.0596C10.0902 21.3427 10.5366 21.5 11 21.5C11.4634 21.5 11.9098 21.3427 12.25 21.0596C12.5902 20.7764 13.0366 20.6191 13.5 20.6191C13.9634 20.6191 14.4098 20.7764 14.75 21.0596C15.0902 21.3427 15.5366 21.5 16 21.5C16.4634 21.5 16.9098 21.3427 17.25 21.0596L17.7867 20.6176C17.9809 20.4561 18.2356 20.3664 18.5 20.3664C18.7644 20.3664 19.0191 20.4561 19.2133 20.6176C19.9056 21.1876 21 20.7316 21 19.8736V5.8699C21 4.67693 21 4.07994 20.8244 3.59995C20.665 3.1542 20.3935 2.74754 20.031 2.4116C19.6685 2.07565 19.2249 1.81948 18.7344 1.663C18.2144 1.5 17.5711 1.5 16.2833 1.5Z" stroke="black" stroke-width="1.25"/>
<path d="M9.33329 10.4999H16.5555M5.4444 10.4999H5.99995M5.4444 6.99994H5.99995M5.4444 13.9998H5.99995M9.33329 6.99994H16.5555M9.33329 13.9998H16.5555" stroke="black" stroke-width="1.25" stroke-linecap="round"/>
</svg>
