<svg width="22" height="23" viewBox="0 0 22 23" fill="none" xmlns="http://www.w3.org/2000/svg">
<path d="M17 5.78786C16.9997 6.35076 16.8443 6.90811 16.5427 7.4281C16.241 7.94808 15.799 8.42051 15.2418 8.8184C14.6847 9.2163 14.0233 9.53188 13.2955 9.74712C12.5677 9.96236 11.7877 10.073 11 10.0729C9.81371 10.0726 8.65417 9.82091 7.66803 9.34967C6.68188 8.87844 5.91341 8.20881 5.45981 7.42546C5.0062 6.64211 4.88782 5.78022 5.11964 4.94879C5.35146 4.11736 5.92307 3.35373 6.76219 2.75446C7.6013 2.15519 8.67023 1.7472 9.83381 1.58209C10.9974 1.41697 12.2033 1.50214 13.2992 1.82683C14.395 2.15152 15.3315 2.70115 15.9903 3.40621C16.649 4.11126 17.0004 4.94008 17 5.78786ZM21 21.4986H1V18.6457C1 17.5085 1.63214 16.4179 2.75736 15.6137C3.88258 14.8096 5.4087 14.3579 7 14.3579H15C16.5913 14.3579 18.1174 14.8096 19.2426 15.6137C20.3679 16.4179 21 17.5085 21 18.6457V21.5V21.4986Z" stroke="black" stroke-width="1.33333" stroke-linecap="square"/>
</svg>
