<svg width="20" height="21" viewBox="0 0 20 21" fill="none" xmlns="http://www.w3.org/2000/svg">
<path d="M12.8 5.5L14 7L7.2 15.5L6 14L12.8 5.5ZM2 0.5H18C19.11 0.5 20 1.6125 20 3V8C19.4696 8 18.9609 8.26339 18.5858 8.73223C18.2107 9.20107 18 9.83696 18 10.5C18 11.163 18.2107 11.7989 18.5858 12.2678C18.9609 12.7366 19.4696 13 20 13V18C20 19.3875 19.11 20.5 18 20.5H2C1.46957 20.5 0.960859 20.2366 0.585786 19.7678C0.210714 19.2989 0 18.663 0 18V13C1.11 13 2 11.8875 2 10.5C2 9.83696 1.78929 9.20107 1.41421 8.73223C1.03914 8.26339 0.530433 8 0 8V3C0 2.33696 0.210714 1.70107 0.585786 1.23223C0.960859 0.763392 1.46957 0.5 2 0.5ZM2 3V6.175C2.60768 6.613 3.11236 7.24333 3.46325 8.00256C3.81415 8.7618 3.9989 9.62317 3.9989 10.5C3.9989 11.3768 3.81415 12.2382 3.46325 12.9974C3.11236 13.7567 2.60768 14.387 2 14.825V18H18V14.825C17.3923 14.387 16.8876 13.7567 16.5367 12.9974C16.1858 12.2382 16.0011 11.3768 16.0011 10.5C16.0011 9.62317 16.1858 8.7618 16.5367 8.00256C16.8876 7.24333 17.3923 6.613 18 6.175V3H2ZM7.5 5.5C8.33 5.5 9 6.3375 9 7.375C9 8.4125 8.33 9.25 7.5 9.25C6.67 9.25 6 8.4125 6 7.375C6 6.3375 6.67 5.5 7.5 5.5ZM12.5 11.75C13.33 11.75 14 12.5875 14 13.625C14 14.6625 13.33 15.5 12.5 15.5C11.67 15.5 11 14.6625 11 13.625C11 12.5875 11.67 11.75 12.5 11.75Z" fill="black"/>
</svg>
