<svg width="24" height="29" viewBox="0 0 24 29" fill="none" xmlns="http://www.w3.org/2000/svg">
<path d="M24 6.66666C24 9.24 21.9067 11.3333 19.3333 11.3333C16.76 11.3333 14.6667 9.24 14.6667 6.66666C14.6667 4.09333 16.76 2 19.3333 2C21.9067 2 24 4.09333 24 6.66666ZM21.3333 13.72C20.6667 13.8933 20 14 19.3333 14C17.3895 13.9965 15.5263 13.2227 14.1518 11.8482C12.7773 10.4737 12.0035 8.6105 12 6.66666C12 4.70666 12.7733 2.93333 14 1.61333C13.758 1.31672 13.4529 1.07782 13.1069 0.914056C12.761 0.750287 12.3828 0.66577 12 0.666663C10.5333 0.666663 9.33333 1.86666 9.33333 3.33333V3.72C5.37333 4.89333 2.66667 8.53333 2.66667 12.6667V20.6667L0 23.3333V24.6667H24V23.3333L21.3333 20.6667V13.72ZM12 28.6667C13.48 28.6667 14.6667 27.48 14.6667 26H9.33333C9.33333 26.7072 9.61429 27.3855 10.1144 27.8856C10.6145 28.3857 11.2928 28.6667 12 28.6667Z" fill="white"/>
</svg>
