<svg width="32" height="32" viewBox="0 0 32 32" fill="none" xmlns="http://www.w3.org/2000/svg">
<path d="M9.33331 22.684L15.2173 22.664L28.06 9.94403C28.564 9.44003 28.8413 8.7707 28.8413 8.0587C28.8413 7.3467 28.564 6.67737 28.06 6.17337L25.9453 4.0587C24.9373 3.0507 23.1786 3.05603 22.1786 4.0547L9.33331 16.7774V22.684ZM24.06 5.94403L26.1786 8.0547L24.0493 10.164L21.9346 8.0507L24.06 5.94403ZM12 17.8894L20.04 9.92537L22.1546 12.04L14.116 20.0014L12 20.008V17.8894Z" fill="#90A087"/>
<path d="M6.66667 28H25.3333C26.804 28 28 26.804 28 25.3333V13.776L25.3333 16.4427V25.3333H10.8773C10.8427 25.3333 10.8067 25.3467 10.772 25.3467C10.728 25.3467 10.684 25.3347 10.6387 25.3333H6.66667V6.66667H15.796L18.4627 4H6.66667C5.196 4 4 5.196 4 6.66667V25.3333C4 26.804 5.196 28 6.66667 28Z" fill="#90A087"/>
</svg>
