<svg width="44" height="44" viewBox="0 0 44 44" fill="none" xmlns="http://www.w3.org/2000/svg">
<path d="M37.0774 22.9643C36.003 17.2425 35.4677 14.3806 33.429 12.6903C31.3959 11 28.4845 11 22.6637 11H21.34C15.5192 11 12.6079 11 10.571 12.6903C8.53604 14.3806 7.99888 17.2425 6.92454 22.9643C5.41754 31.0108 4.66221 35.0331 6.86221 37.6841C9.06038 40.3333 13.1524 40.3333 21.3382 40.3333H22.6619C30.8477 40.3333 34.9415 40.3333 37.1397 37.6841C38.4157 36.1441 38.698 34.1458 38.4157 31.1666M16.5 11V9.16663C16.5 7.70794 17.0795 6.30899 18.111 5.27754C19.1424 4.24609 20.5414 3.66663 22 3.66663C23.4587 3.66663 24.8577 4.24609 25.8891 5.27754C26.9206 6.30899 27.5 7.70794 27.5 9.16663V11" stroke="black" stroke-width="2" stroke-linecap="round"/>
<circle cx="34.5" cy="25.5" r="9.5" fill="#FF4848"/>
<path d="M32.634 28.27C33.4807 27.59 34.144 27.0333 34.624 26.6C35.104 26.16 35.5074 25.7033 35.834 25.23C36.1674 24.75 36.334 24.28 36.334 23.82C36.334 23.3867 36.2274 23.0467 36.014 22.8C35.8074 22.5467 35.4707 22.42 35.004 22.42C34.5507 22.42 34.1974 22.5633 33.944 22.85C33.6974 23.13 33.564 23.5067 33.544 23.98H32.664C32.6907 23.2333 32.9174 22.6567 33.344 22.25C33.7707 21.8433 34.3207 21.64 34.994 21.64C35.6807 21.64 36.224 21.83 36.624 22.21C37.0307 22.59 37.234 23.1133 37.234 23.78C37.234 24.3333 37.0674 24.8733 36.734 25.4C36.4074 25.92 36.034 26.38 35.614 26.78C35.194 27.1733 34.6574 27.6333 34.004 28.16H37.444V28.92H32.634V28.27Z" fill="white"/>
</svg>
