<svg width="44" height="44" viewBox="0 0 44 44" fill="none" xmlns="http://www.w3.org/2000/svg">
<path d="M30.5938 5.84375C26.9844 5.84375 23.8459 7.47141 22 10.1991C20.1541 7.47141 17.0156 5.84375 13.4062 5.84375C10.6722 5.84693 8.05101 6.93445 6.11773 8.86773C4.18445 10.801 3.09693 13.4222 3.09375 16.1562C3.09375 21.175 6.22187 26.3983 12.3922 31.6783C15.2196 34.0876 18.2738 36.2173 21.5119 38.0377C21.6619 38.1183 21.8296 38.1605 22 38.1605C22.1704 38.1605 22.3381 38.1183 22.4881 38.0377C25.7262 36.2173 28.7804 34.0876 31.6078 31.6783C37.7781 26.3983 40.9062 21.175 40.9062 16.1562C40.9031 13.4222 39.8156 10.801 37.8823 8.86773C35.949 6.93445 33.3278 5.84693 30.5938 5.84375ZM22 35.9408C19.1795 34.3131 5.15625 25.7331 5.15625 16.1562C5.15852 13.9689 6.02845 11.8718 7.57513 10.3251C9.12181 8.77845 11.2189 7.90852 13.4062 7.90625C16.8919 7.90625 19.8189 9.76766 21.0461 12.7652C21.1238 12.9543 21.256 13.1161 21.4258 13.2299C21.5957 13.3438 21.7955 13.4046 22 13.4046C22.2045 13.4046 22.4043 13.3438 22.5742 13.2299C22.744 13.1161 22.8762 12.9543 22.9539 12.7652C24.1811 9.76766 27.1081 7.90625 30.5938 7.90625C32.7811 7.90852 34.8782 8.77845 36.4249 10.3251C37.9715 11.8718 38.8415 13.9689 38.8438 16.1562C38.8438 25.7331 24.8205 34.3131 22 35.9408Z" fill="black"/>
</svg>
