<svg width="42" height="34" viewBox="0 0 42 34" fill="none" xmlns="http://www.w3.org/2000/svg">
<path d="M3.5 15.5833L8.41225 11.1108C9.06898 10.5126 9.87483 10.0337 10.7767 9.70575C11.6786 9.37781 12.6561 9.20826 13.6448 9.20825H14M3.5 27.6249H13.125L20.125 23.3749C20.125 23.3749 21.5425 22.6 23.625 21.2499C28 18.4166 23.625 13.9314 19.25 16.2916C15.687 18.214 12.25 19.8333 12.25 19.8333" stroke="white" stroke-width="2" stroke-linecap="round" stroke-linejoin="round"/>
<path d="M14 19.1249V9.91659C14 9.16514 14.3687 8.44447 15.0251 7.91312C15.6815 7.38176 16.5717 7.08325 17.5 7.08325H35C35.9283 7.08325 36.8185 7.38176 37.4749 7.91312C38.1313 8.44447 38.5 9.16514 38.5 9.91659V18.4166C38.5 19.168 38.1313 19.8887 37.4749 20.4201C36.8185 20.9514 35.9283 21.2499 35 21.2499H23.625" stroke="white" stroke-width="2"/>
<path d="M34.125 14.1808L34.1425 14.1652M18.375 14.1808L18.3925 14.1652M26.25 16.9999C25.3217 16.9999 24.4315 16.7014 23.7751 16.1701C23.1187 15.6387 22.75 14.918 22.75 14.1666C22.75 13.4151 23.1187 12.6945 23.7751 12.1631C24.4315 11.6318 25.3217 11.3333 26.25 11.3333C27.1783 11.3333 28.0685 11.6318 28.7249 12.1631C29.3813 12.6945 29.75 13.4151 29.75 14.1666C29.75 14.918 29.3813 15.6387 28.7249 16.1701C28.0685 16.7014 27.1783 16.9999 26.25 16.9999Z" stroke="white" stroke-width="2" stroke-linecap="round" stroke-linejoin="round"/>
</svg>
