<svg width="39" height="32" viewBox="0 0 39 32" fill="none" xmlns="http://www.w3.org/2000/svg">
<path fill-rule="evenodd" clip-rule="evenodd" d="M23.2928 8.09577H28.5C29.1299 8.09577 29.734 8.33941 30.1794 8.77309C30.6248 9.20676 30.875 9.79496 30.875 10.4083V13.6895H36.1575L36.3745 14.3765L38.3745 20.3765L38.4375 20.5335V28.6895H35.2815C34.8355 30.4085 33.2895 31.6895 31.4375 31.6895C29.5855 31.6895 28.0395 30.4085 27.5935 28.6895H27.1333C26.8207 28.8322 26.4769 28.9083 26.125 28.9083H19.2181C18.7023 30.5161 17.21 31.6895 15.4375 31.6895C13.665 31.6895 12.1727 30.5161 11.6569 28.9083H4.75C4.12011 28.9083 3.51602 28.6646 3.07062 28.231C2.62522 27.7973 2.375 27.2091 2.375 26.5958V17.3458C1.74511 17.3458 1.14102 17.1021 0.695621 16.6685C0.250222 16.2348 0 15.6466 0 15.0333V10.4083C0 9.79496 0.250222 9.20676 0.695621 8.77309C1.14102 8.33941 1.74511 8.09577 2.375 8.09577H7.58219C7.54809 8.06597 7.51348 8.03768 7.47926 8.00971C7.45538 7.9902 7.4317 7.97084 7.40852 7.95124C6.9577 7.56126 6.59437 7.0849 6.34126 6.55196C6.08815 6.01902 5.95069 5.44096 5.9375 4.85393C5.918 4.21174 6.03351 3.57245 6.27694 2.9753C6.52036 2.37815 6.88657 1.83574 7.35307 1.38138C7.81958 0.927013 8.37653 0.570282 8.98975 0.333084C9.60297 0.0958858 10.2595 -0.0167742 10.9191 0.00202025C11.5222 0.0146694 12.1162 0.148409 12.6638 0.394866C13.2114 0.641324 13.7009 0.995194 14.1016 1.43432C14.656 2.05999 15.1067 2.7661 15.4375 3.52714C15.7683 2.7661 16.219 2.05999 16.7734 1.43432C17.1741 0.995194 17.6636 0.641324 18.2112 0.394866C18.7588 0.148409 19.3528 0.0146694 19.9559 0.00202025C20.6155 -0.0167742 21.272 0.0958858 21.8852 0.333084C22.4985 0.570282 23.0554 0.927013 23.5219 1.38138C23.9884 1.83574 24.3546 2.37815 24.5981 2.9753C24.8415 3.57245 24.957 4.21174 24.9375 4.85393C24.9243 5.44096 24.7869 6.01902 24.5337 6.55196C24.2806 7.0849 23.9173 7.56126 23.4665 7.95124C23.426 7.98755 23.384 8.02163 23.3421 8.05562C23.3256 8.06897 23.3091 8.08231 23.2928 8.09577ZM13.8438 28.9083C14.207 29.3854 14.7819 29.6895 15.4375 29.6895C16.0931 29.6895 16.668 29.3854 17.0312 28.9083H13.8438ZM25.4379 26.5958H19.256C18.8876 25.3049 17.8952 24.2746 16.625 23.8722V17.3458H25.4736L25.4379 26.5958ZM25.4825 15.0333H16.625V10.5001H25.5L25.4825 15.0333ZM6.4375 10.4083V10.5001H14.25V15.0333H2.375V10.4083H6.4375ZM16.625 26.0725C16.8201 26.215 16.9876 26.3923 17.1189 26.5958H16.625V26.0725ZM14.25 26.0725V26.5958H13.7561C13.8874 26.3923 14.0549 26.215 14.25 26.0725ZM14.25 23.8722C12.9798 24.2746 11.9874 25.3049 11.619 26.5958H4.75V17.3458H14.25V23.8722ZM28.5 25.0041C29.2253 24.198 30.2707 23.6895 31.4375 23.6895C33.2895 23.6895 34.8355 24.9705 35.2815 26.6895H36.4375V20.8145L35.578 18.252L34.7185 15.6895H30.7774C30.666 16.056 30.4619 16.3933 30.1794 16.6685C29.734 17.1021 29.1299 17.3458 28.5 17.3458V25.0041ZM19.2271 2.49013C18.9716 2.60205 18.7427 2.76419 18.5547 2.96636C17.3672 4.26569 16.8773 6.49003 16.6992 8.02061C18.148 7.8703 20.4859 7.44249 21.8945 6.22843C22.1022 6.04535 22.2687 5.82246 22.3836 5.57374C22.4986 5.32502 22.5595 5.05584 22.5625 4.78311C22.5714 4.46357 22.5147 4.14551 22.3957 3.84757C22.2768 3.54963 22.0979 3.27781 21.8697 3.04804C21.6414 2.81826 21.3684 2.63516 21.0665 2.50945C20.7647 2.38374 20.4401 2.31796 20.1118 2.31597H20.0391C19.759 2.31891 19.4825 2.3782 19.2271 2.49013ZM10.7751 2.31452C10.1245 2.31751 9.5014 2.57047 9.04133 3.01839H9.03539C8.80011 3.24888 8.61536 3.52352 8.49238 3.82563C8.36939 4.12774 8.31072 4.45103 8.31992 4.77589C8.32294 5.04861 8.38384 5.31779 8.49879 5.56651C8.61374 5.81523 8.78026 6.03813 8.98789 6.2212C10.3951 7.43382 12.7285 7.86741 14.1713 8.01194C14.017 6.6071 13.5776 4.33507 12.3322 2.96491C12.1442 2.76274 11.9152 2.6006 11.6598 2.48868C11.4044 2.37676 11.1279 2.31746 10.8478 2.31452H10.7751ZM33.4375 27.6895C33.4375 26.5725 32.5545 25.6895 31.4375 25.6895C30.3205 25.6895 29.4375 26.5725 29.4375 27.6895C29.4375 28.8065 30.3205 29.6895 31.4375 29.6895C32.5545 29.6895 33.4375 28.8065 33.4375 27.6895Z" fill="white"/>
</svg>
