<svg width="407" height="471" viewBox="0 0 407 471" fill="none" xmlns="http://www.w3.org/2000/svg">
<circle cx="203.5" cy="203.5" r="203.5" fill="#D9D9D9"/>
<path d="M115.35 462.175C114.933 462.175 114.608 462.058 114.375 461.825C114.158 461.592 114.05 461.267 114.05 460.85V445.7C114.05 445.267 114.167 444.942 114.4 444.725C114.633 444.492 114.958 444.375 115.375 444.375H121.35C123.25 444.375 124.717 444.85 125.75 445.8C126.783 446.733 127.3 448.05 127.3 449.75C127.3 451.467 126.783 452.8 125.75 453.75C124.717 454.683 123.25 455.15 121.35 455.15H116.65V460.85C116.65 461.267 116.542 461.592 116.325 461.825C116.108 462.058 115.783 462.175 115.35 462.175ZM116.65 453.075H120.975C122.225 453.075 123.167 452.8 123.8 452.25C124.45 451.683 124.775 450.85 124.775 449.75C124.775 448.667 124.45 447.85 123.8 447.3C123.167 446.733 122.225 446.45 120.975 446.45H116.65V453.075ZM133.994 462.225C133.011 462.225 132.186 462.042 131.519 461.675C130.869 461.308 130.377 460.767 130.044 460.05C129.727 459.317 129.569 458.4 129.569 457.3V450.9C129.569 450.467 129.677 450.15 129.894 449.95C130.111 449.733 130.419 449.625 130.819 449.625C131.219 449.625 131.527 449.733 131.744 449.95C131.977 450.15 132.094 450.467 132.094 450.9V457.325C132.094 458.308 132.294 459.033 132.694 459.5C133.094 459.967 133.727 460.2 134.594 460.2C135.544 460.2 136.311 459.883 136.894 459.25C137.494 458.6 137.794 457.75 137.794 456.7V450.9C137.794 450.467 137.902 450.15 138.119 449.95C138.336 449.733 138.652 449.625 139.069 449.625C139.469 449.625 139.777 449.733 139.994 449.95C140.211 450.15 140.319 450.467 140.319 450.9V460.9C140.319 461.75 139.911 462.175 139.094 462.175C138.711 462.175 138.411 462.067 138.194 461.85C137.977 461.617 137.869 461.3 137.869 460.9V458.775L138.194 459.325C137.861 460.258 137.327 460.975 136.594 461.475C135.861 461.975 134.994 462.225 133.994 462.225ZM149.078 462.225C148.078 462.225 147.236 462.05 146.553 461.7C145.869 461.35 145.361 460.833 145.028 460.15C144.694 459.467 144.528 458.633 144.528 457.65V451.75H143.028C142.694 451.75 142.436 451.667 142.253 451.5C142.069 451.317 141.978 451.075 141.978 450.775C141.978 450.458 142.069 450.217 142.253 450.05C142.436 449.883 142.694 449.8 143.028 449.8H144.528V447.225C144.528 446.808 144.636 446.492 144.853 446.275C145.086 446.058 145.403 445.95 145.803 445.95C146.203 445.95 146.511 446.058 146.728 446.275C146.944 446.492 147.053 446.808 147.053 447.225V449.8H149.978C150.311 449.8 150.569 449.883 150.753 450.05C150.936 450.217 151.028 450.458 151.028 450.775C151.028 451.075 150.936 451.317 150.753 451.5C150.569 451.667 150.311 451.75 149.978 451.75H147.053V457.45C147.053 458.333 147.236 459 147.603 459.45C147.986 459.9 148.603 460.125 149.453 460.125C149.753 460.125 150.011 460.1 150.228 460.05C150.461 459.983 150.653 459.942 150.803 459.925C150.986 459.925 151.136 459.992 151.253 460.125C151.369 460.242 151.428 460.475 151.428 460.825C151.428 461.075 151.378 461.308 151.278 461.525C151.194 461.742 151.036 461.883 150.803 461.95C150.603 462.017 150.328 462.075 149.978 462.125C149.644 462.192 149.344 462.225 149.078 462.225ZM162.475 466.675C162.175 466.675 161.925 466.592 161.725 466.425C161.542 466.275 161.434 466.067 161.4 465.8C161.384 465.55 161.434 465.275 161.55 464.975L163.25 461.15V462.225L158.575 451.35C158.459 451.05 158.417 450.767 158.45 450.5C158.484 450.233 158.609 450.025 158.825 449.875C159.042 449.708 159.334 449.625 159.7 449.625C160.017 449.625 160.267 449.7 160.45 449.85C160.634 450 160.8 450.258 160.95 450.625L164.725 459.95H164.025L167.85 450.625C168 450.242 168.175 449.983 168.375 449.85C168.575 449.7 168.85 449.625 169.2 449.625C169.5 449.625 169.734 449.708 169.9 449.875C170.084 450.025 170.192 450.233 170.225 450.5C170.275 450.75 170.234 451.025 170.1 451.325L163.85 465.7C163.684 466.083 163.492 466.342 163.275 466.475C163.075 466.608 162.809 466.675 162.475 466.675ZM177.669 462.225C176.435 462.225 175.369 461.967 174.469 461.45C173.585 460.933 172.894 460.2 172.394 459.25C171.894 458.3 171.644 457.183 171.644 455.9C171.644 454.917 171.785 454.042 172.069 453.275C172.352 452.508 172.752 451.85 173.269 451.3C173.802 450.733 174.435 450.308 175.169 450.025C175.919 449.725 176.752 449.575 177.669 449.575C178.885 449.575 179.935 449.833 180.819 450.35C181.719 450.867 182.419 451.6 182.919 452.55C183.419 453.483 183.669 454.6 183.669 455.9C183.669 456.867 183.527 457.742 183.244 458.525C182.96 459.308 182.552 459.975 182.019 460.525C181.502 461.075 180.869 461.5 180.119 461.8C179.385 462.083 178.569 462.225 177.669 462.225ZM177.669 460.275C178.352 460.275 178.952 460.108 179.469 459.775C179.985 459.442 180.385 458.95 180.669 458.3C180.969 457.65 181.119 456.85 181.119 455.9C181.119 454.467 180.802 453.383 180.169 452.65C179.535 451.917 178.702 451.55 177.669 451.55C176.969 451.55 176.36 451.717 175.844 452.05C175.327 452.367 174.919 452.85 174.619 453.5C174.335 454.15 174.194 454.95 174.194 455.9C174.194 457.317 174.51 458.4 175.144 459.15C175.777 459.9 176.619 460.275 177.669 460.275ZM190.854 462.225C189.871 462.225 189.046 462.042 188.379 461.675C187.729 461.308 187.238 460.767 186.904 460.05C186.588 459.317 186.429 458.4 186.429 457.3V450.9C186.429 450.467 186.538 450.15 186.754 449.95C186.971 449.733 187.279 449.625 187.679 449.625C188.079 449.625 188.388 449.733 188.604 449.95C188.838 450.15 188.954 450.467 188.954 450.9V457.325C188.954 458.308 189.154 459.033 189.554 459.5C189.954 459.967 190.588 460.2 191.454 460.2C192.404 460.2 193.171 459.883 193.754 459.25C194.354 458.6 194.654 457.75 194.654 456.7V450.9C194.654 450.467 194.763 450.15 194.979 449.95C195.196 449.733 195.513 449.625 195.929 449.625C196.329 449.625 196.638 449.733 196.854 449.95C197.071 450.15 197.179 450.467 197.179 450.9V460.9C197.179 461.75 196.771 462.175 195.954 462.175C195.571 462.175 195.271 462.067 195.054 461.85C194.838 461.617 194.729 461.3 194.729 460.9V458.775L195.054 459.325C194.721 460.258 194.188 460.975 193.454 461.475C192.721 461.975 191.854 462.225 190.854 462.225ZM202.013 462.175C201.596 462.175 201.28 462.067 201.063 461.85C200.846 461.617 200.738 461.3 200.738 460.9V450.9C200.738 450.483 200.846 450.167 201.063 449.95C201.28 449.733 201.58 449.625 201.963 449.625C202.363 449.625 202.663 449.733 202.863 449.95C203.08 450.167 203.188 450.483 203.188 450.9V452.725H202.938C203.205 451.725 203.696 450.967 204.413 450.45C205.13 449.933 206.046 449.633 207.163 449.55C207.463 449.533 207.696 449.608 207.863 449.775C208.046 449.942 208.146 450.2 208.163 450.55C208.196 450.9 208.121 451.183 207.938 451.4C207.755 451.6 207.471 451.717 207.088 451.75L206.613 451.8C205.53 451.9 204.705 452.242 204.138 452.825C203.571 453.408 203.288 454.208 203.288 455.225V460.9C203.288 461.3 203.18 461.617 202.963 461.85C202.763 462.067 202.446 462.175 202.013 462.175ZM217.906 466.675C217.506 466.675 217.198 466.567 216.981 466.35C216.764 466.133 216.656 465.817 216.656 465.4V450.9C216.656 450.483 216.764 450.167 216.981 449.95C217.198 449.733 217.498 449.625 217.881 449.625C218.281 449.625 218.589 449.733 218.806 449.95C219.023 450.167 219.131 450.483 219.131 450.9V453.075L218.856 452.55C219.123 451.65 219.648 450.933 220.431 450.4C221.214 449.85 222.139 449.575 223.206 449.575C224.289 449.575 225.231 449.833 226.031 450.35C226.848 450.867 227.473 451.592 227.906 452.525C228.356 453.458 228.581 454.583 228.581 455.9C228.581 457.183 228.356 458.308 227.906 459.275C227.473 460.225 226.856 460.958 226.056 461.475C225.256 461.975 224.306 462.225 223.206 462.225C222.156 462.225 221.239 461.958 220.456 461.425C219.673 460.892 219.148 460.183 218.881 459.3H219.181V465.4C219.181 465.817 219.064 466.133 218.831 466.35C218.614 466.567 218.306 466.675 217.906 466.675ZM222.581 460.275C223.281 460.275 223.889 460.108 224.406 459.775C224.923 459.442 225.323 458.95 225.606 458.3C225.889 457.65 226.031 456.85 226.031 455.9C226.031 454.467 225.714 453.383 225.081 452.65C224.464 451.917 223.631 451.55 222.581 451.55C221.898 451.55 221.289 451.717 220.756 452.05C220.239 452.367 219.839 452.85 219.556 453.5C219.273 454.15 219.131 454.95 219.131 455.9C219.131 457.317 219.448 458.4 220.081 459.15C220.714 459.9 221.548 460.275 222.581 460.275ZM232.676 462.15C232.276 462.15 231.968 462.033 231.751 461.8C231.535 461.55 231.426 461.208 231.426 460.775V451.025C231.426 450.592 231.535 450.258 231.751 450.025C231.968 449.792 232.276 449.675 232.676 449.675C233.076 449.675 233.385 449.792 233.601 450.025C233.835 450.258 233.951 450.592 233.951 451.025V460.775C233.951 461.208 233.843 461.55 233.626 461.8C233.41 462.033 233.093 462.15 232.676 462.15ZM232.676 447.075C232.176 447.075 231.785 446.95 231.501 446.7C231.235 446.45 231.101 446.1 231.101 445.65C231.101 445.183 231.235 444.833 231.501 444.6C231.785 444.35 232.176 444.225 232.676 444.225C233.176 444.225 233.56 444.35 233.826 444.6C234.11 444.833 234.251 445.183 234.251 445.65C234.251 446.1 234.11 446.45 233.826 446.7C233.56 446.95 233.176 447.075 232.676 447.075ZM242.88 462.225C241.63 462.225 240.547 461.967 239.63 461.45C238.73 460.917 238.03 460.175 237.53 459.225C237.03 458.258 236.78 457.125 236.78 455.825C236.78 454.858 236.922 453.992 237.205 453.225C237.489 452.442 237.889 451.783 238.405 451.25C238.939 450.717 239.58 450.308 240.33 450.025C241.097 449.725 241.947 449.575 242.88 449.575C243.464 449.575 244.072 449.667 244.705 449.85C245.355 450.017 245.955 450.3 246.505 450.7C246.722 450.833 246.855 451 246.905 451.2C246.972 451.383 246.98 451.575 246.93 451.775C246.897 451.975 246.805 452.15 246.655 452.3C246.522 452.433 246.355 452.517 246.155 452.55C245.955 452.567 245.739 452.508 245.505 452.375C245.105 452.092 244.697 451.892 244.28 451.775C243.864 451.642 243.464 451.575 243.08 451.575C242.48 451.575 241.947 451.675 241.48 451.875C241.03 452.058 240.647 452.333 240.33 452.7C240.014 453.05 239.772 453.492 239.605 454.025C239.455 454.558 239.38 455.167 239.38 455.85C239.38 457.217 239.697 458.292 240.33 459.075C240.98 459.842 241.897 460.225 243.08 460.225C243.464 460.225 243.864 460.167 244.28 460.05C244.697 459.933 245.105 459.733 245.505 459.45C245.739 459.317 245.955 459.267 246.155 459.3C246.355 459.333 246.514 459.425 246.63 459.575C246.764 459.708 246.847 459.875 246.88 460.075C246.93 460.258 246.922 460.45 246.855 460.65C246.789 460.85 246.647 461.017 246.43 461.15C245.897 461.533 245.314 461.808 244.68 461.975C244.064 462.142 243.464 462.225 242.88 462.225ZM254.4 462.225C253.4 462.225 252.558 462.05 251.875 461.7C251.191 461.35 250.683 460.833 250.35 460.15C250.016 459.467 249.85 458.633 249.85 457.65V451.75H248.35C248.016 451.75 247.758 451.667 247.575 451.5C247.391 451.317 247.3 451.075 247.3 450.775C247.3 450.458 247.391 450.217 247.575 450.05C247.758 449.883 248.016 449.8 248.35 449.8H249.85V447.225C249.85 446.808 249.958 446.492 250.175 446.275C250.408 446.058 250.725 445.95 251.125 445.95C251.525 445.95 251.833 446.058 252.05 446.275C252.266 446.492 252.375 446.808 252.375 447.225V449.8H255.3C255.633 449.8 255.891 449.883 256.075 450.05C256.258 450.217 256.35 450.458 256.35 450.775C256.35 451.075 256.258 451.317 256.075 451.5C255.891 451.667 255.633 451.75 255.3 451.75H252.375V457.45C252.375 458.333 252.558 459 252.925 459.45C253.308 459.9 253.925 460.125 254.775 460.125C255.075 460.125 255.333 460.1 255.55 460.05C255.783 459.983 255.975 459.942 256.125 459.925C256.308 459.925 256.458 459.992 256.575 460.125C256.691 460.242 256.75 460.475 256.75 460.825C256.75 461.075 256.7 461.308 256.6 461.525C256.516 461.742 256.358 461.883 256.125 461.95C255.925 462.017 255.65 462.075 255.3 462.125C254.966 462.192 254.666 462.225 254.4 462.225ZM262.681 462.225C261.697 462.225 260.872 462.042 260.206 461.675C259.556 461.308 259.064 460.767 258.731 460.05C258.414 459.317 258.256 458.4 258.256 457.3V450.9C258.256 450.467 258.364 450.15 258.581 449.95C258.797 449.733 259.106 449.625 259.506 449.625C259.906 449.625 260.214 449.733 260.431 449.95C260.664 450.15 260.781 450.467 260.781 450.9V457.325C260.781 458.308 260.981 459.033 261.381 459.5C261.781 459.967 262.414 460.2 263.281 460.2C264.231 460.2 264.997 459.883 265.581 459.25C266.181 458.6 266.481 457.75 266.481 456.7V450.9C266.481 450.467 266.589 450.15 266.806 449.95C267.022 449.733 267.339 449.625 267.756 449.625C268.156 449.625 268.464 449.733 268.681 449.95C268.897 450.15 269.006 450.467 269.006 450.9V460.9C269.006 461.75 268.597 462.175 267.781 462.175C267.397 462.175 267.097 462.067 266.881 461.85C266.664 461.617 266.556 461.3 266.556 460.9V458.775L266.881 459.325C266.547 460.258 266.014 460.975 265.281 461.475C264.547 461.975 263.681 462.225 262.681 462.225ZM273.839 462.175C273.422 462.175 273.106 462.067 272.889 461.85C272.672 461.617 272.564 461.3 272.564 460.9V450.9C272.564 450.483 272.672 450.167 272.889 449.95C273.106 449.733 273.406 449.625 273.789 449.625C274.189 449.625 274.489 449.733 274.689 449.95C274.906 450.167 275.014 450.483 275.014 450.9V452.725H274.764C275.031 451.725 275.522 450.967 276.239 450.45C276.956 449.933 277.872 449.633 278.989 449.55C279.289 449.533 279.522 449.608 279.689 449.775C279.872 449.942 279.972 450.2 279.989 450.55C280.022 450.9 279.947 451.183 279.764 451.4C279.581 451.6 279.297 451.717 278.914 451.75L278.439 451.8C277.356 451.9 276.531 452.242 275.964 452.825C275.397 453.408 275.114 454.208 275.114 455.225V460.9C275.114 461.3 275.006 461.617 274.789 461.85C274.589 462.067 274.272 462.175 273.839 462.175ZM287.444 462.225C286.111 462.225 284.961 461.975 283.994 461.475C283.044 460.958 282.303 460.233 281.769 459.3C281.253 458.35 280.994 457.225 280.994 455.925C280.994 454.658 281.253 453.55 281.769 452.6C282.286 451.65 282.994 450.908 283.894 450.375C284.794 449.842 285.819 449.575 286.969 449.575C287.819 449.575 288.578 449.717 289.244 450C289.911 450.267 290.478 450.667 290.944 451.2C291.428 451.717 291.786 452.35 292.019 453.1C292.269 453.85 292.394 454.692 292.394 455.625C292.394 455.908 292.311 456.125 292.144 456.275C291.978 456.408 291.728 456.475 291.394 456.475H282.994V454.925H290.694L290.269 455.275C290.269 454.442 290.144 453.733 289.894 453.15C289.661 452.567 289.303 452.125 288.819 451.825C288.353 451.508 287.769 451.35 287.069 451.35C286.286 451.35 285.619 451.533 285.069 451.9C284.536 452.267 284.128 452.775 283.844 453.425C283.561 454.075 283.419 454.833 283.419 455.7V455.85C283.419 457.317 283.761 458.425 284.444 459.175C285.144 459.908 286.153 460.275 287.469 460.275C287.969 460.275 288.494 460.208 289.044 460.075C289.611 459.942 290.144 459.717 290.644 459.4C290.928 459.233 291.178 459.158 291.394 459.175C291.628 459.192 291.811 459.267 291.944 459.4C292.094 459.533 292.186 459.7 292.219 459.9C292.253 460.1 292.219 460.308 292.119 460.525C292.019 460.725 291.844 460.908 291.594 461.075C291.028 461.458 290.369 461.75 289.619 461.95C288.869 462.133 288.144 462.225 287.444 462.225Z" fill="#90A087"/>
<g clip-path="url(#clip0_456_3530)">
<path d="M256.667 149.333H149.333C147.3 149.333 145.35 150.141 143.912 151.579C142.474 153.017 141.667 154.967 141.667 157V249C141.667 251.033 142.474 252.983 143.912 254.421C145.35 255.859 147.3 256.667 149.333 256.667H256.667C258.7 256.667 260.65 255.859 262.088 254.421C263.526 252.983 264.333 251.033 264.333 249V157C264.333 154.967 263.526 153.017 262.088 151.579C260.65 150.141 258.7 149.333 256.667 149.333ZM149.333 249V157H256.667V249H149.333Z" fill="#192A3E"/>
<path d="M168.193 187.667C170.468 187.667 172.691 186.992 174.582 185.729C176.474 184.465 177.948 182.669 178.818 180.568C179.688 178.466 179.916 176.154 179.472 173.923C179.029 171.692 177.933 169.643 176.325 168.035C174.717 166.427 172.668 165.331 170.437 164.888C168.206 164.444 165.894 164.672 163.792 165.542C161.691 166.412 159.895 167.886 158.631 169.778C157.368 171.669 156.693 173.892 156.693 176.167C156.693 179.217 157.905 182.142 160.062 184.298C162.218 186.455 165.143 187.667 168.193 187.667ZM168.193 170.033C169.408 170.026 170.598 170.379 171.611 171.048C172.625 171.718 173.417 172.673 173.887 173.793C174.357 174.913 174.484 176.147 174.252 177.34C174.02 178.532 173.438 179.628 172.582 180.49C171.726 181.351 170.633 181.939 169.442 182.179C168.252 182.419 167.016 182.3 165.894 181.837C164.771 181.374 163.81 180.588 163.135 179.578C162.459 178.569 162.098 177.381 162.098 176.167C162.108 174.553 162.754 173.009 163.895 171.868C165.036 170.727 166.58 170.082 168.193 170.072V170.033Z" fill="#192A3E"/>
<path d="M221.323 192.918L200.623 213.618L185.29 198.285C184.572 197.571 183.6 197.17 182.588 197.17C181.575 197.17 180.603 197.571 179.885 198.285L156.693 221.783V232.632L182.722 206.603L195.333 219.023L180.958 233.398H191.5L223.892 201.007L249 226V215.19L226.728 192.918C226.01 192.204 225.039 191.804 224.026 191.804C223.013 191.804 222.042 192.204 221.323 192.918Z" fill="#192A3E"/>
</g>
<defs>
<clipPath id="clip0_456_3530">
<rect width="138" height="138" fill="white" transform="translate(134 134)"/>
</clipPath>
</defs>
</svg>
