<svg width="44" height="44" viewBox="0 0 44 44" fill="none" xmlns="http://www.w3.org/2000/svg">
<path d="M18.7916 3.66663C21.6662 3.66631 24.4814 4.48517 26.9073 6.02728C29.3333 7.5694 31.2695 9.7709 32.4892 12.3739C33.709 14.9769 34.1616 17.8735 33.7943 20.7246C33.4269 23.5756 32.2547 26.2629 30.415 28.4716L40.8466 38.9033C41.0276 39.0714 41.16 39.2851 41.2296 39.5221C41.2993 39.759 41.3038 40.0104 41.2426 40.2497C41.1815 40.489 41.0569 40.7074 40.882 40.8818C40.7071 41.0562 40.4884 41.1802 40.249 41.2408C40.01 41.3021 39.7588 41.2978 39.522 41.2284C39.2852 41.1591 39.0715 41.0272 38.9033 40.8466L28.4716 30.415C26.605 31.9692 24.3915 33.051 22.0184 33.5689C19.6452 34.0867 17.1822 34.0254 14.8378 33.3902C12.4934 32.7549 10.3364 31.5643 8.5494 29.9191C6.76239 28.274 5.39789 26.2226 4.57132 23.9386C3.74475 21.6545 3.48042 19.205 3.80071 16.7973C4.12099 14.3895 5.01646 12.0942 6.41137 10.1057C7.80627 8.1172 9.65958 6.49388 11.8145 5.37307C13.9695 4.25227 16.3627 3.66695 18.7916 3.66663ZM6.41665 18.7916C6.41665 20.4167 6.73673 22.0259 7.35864 23.5273C7.98054 25.0287 8.89207 26.3929 10.0412 27.5421C11.1903 28.6912 12.5545 29.6027 14.0559 30.2246C15.5573 30.8465 17.1665 31.1666 18.7916 31.1666C20.4168 31.1666 22.0259 30.8465 23.5274 30.2246C25.0288 29.6027 26.393 28.6912 27.5421 27.5421C28.6912 26.3929 29.6028 25.0287 30.2247 23.5273C30.8466 22.0259 31.1666 20.4167 31.1666 18.7916C31.1666 15.5096 29.8629 12.3619 27.5421 10.0412C25.2213 7.72042 22.0737 6.41663 18.7916 6.41663C15.5096 6.41663 12.362 7.72042 10.0412 10.0412C7.72044 12.3619 6.41665 15.5096 6.41665 18.7916Z" fill="black"/>
</svg>
