<svg width="46" height="46" viewBox="0 0 46 46" fill="none" xmlns="http://www.w3.org/2000/svg">
<path fill-rule="evenodd" clip-rule="evenodd" d="M22.9999 1C24.103 1 25.1904 1.08171 26.2495 1.23885L27.846 6.07563C29.2446 6.47477 30.574 7.04362 31.8059 7.76018L36.3944 5.54764C38.0192 6.79534 39.4649 8.26617 40.6843 9.913L38.3901 14.4606C39.0846 15.7052 39.6314 17.044 40.0054 18.452L44.8139 20.1271C45.0788 22.1605 45.0608 24.2208 44.7604 26.2493L39.9237 27.8459C39.5273 29.2301 38.9615 30.5602 38.2392 31.8058L40.4517 36.3943C39.2023 38.0196 37.7332 39.4634 36.0864 40.6842L31.5388 38.39C30.2808 39.0925 28.94 39.6352 27.5475 40.0054L25.8724 44.8139C23.839 45.0788 21.7787 45.0608 19.7503 44.7604L18.1537 39.9237C16.7695 39.5272 15.4395 38.9614 14.1938 38.2391L9.6054 40.4517C7.98013 39.2023 6.53637 37.7331 5.31551 36.0863L7.60973 31.5387C6.90893 30.2798 6.36636 28.9392 5.99435 27.5473L1.18591 25.869C0.921265 23.8367 0.939245 21.7774 1.23933 19.75L6.07606 18.1534C6.47519 16.7549 7.04404 15.4255 7.76059 14.1935L5.54808 9.60501C6.79745 7.97973 8.2666 6.53594 9.91339 5.31508L14.461 7.60932C15.719 6.90681 17.0598 6.36414 18.4523 5.99392L20.1305 1.18543C21.082 1.06164 22.0404 0.999706 22.9999 1Z" stroke="black" stroke-width="2" stroke-linecap="round" stroke-linejoin="round"/>
<path d="M22.9999 32.4279C28.207 32.4279 32.4282 28.2066 32.4282 22.9995C32.4282 17.7923 28.207 13.571 22.9999 13.571C17.7928 13.571 13.5716 17.7923 13.5716 22.9995C13.5716 28.2066 17.7928 32.4279 22.9999 32.4279Z" stroke="black" stroke-width="2" stroke-linecap="round" stroke-linejoin="round"/>
</svg>
