<svg width="13" height="13" viewBox="0 0 13 13" fill="none" xmlns="http://www.w3.org/2000/svg">
<g clip-path="url(#clip0_592_4348)">
<path d="M5.75769 1.28027C6.57083 1.28018 7.36716 1.51182 8.05338 1.94804C8.73961 2.38426 9.28732 3.007 9.63234 3.74331C9.97737 4.47962 10.1054 5.299 10.0015 6.10547C9.89759 6.91194 9.56601 7.6721 9.0456 8.2969L11.9964 11.2477C12.0476 11.2953 12.085 11.3557 12.1048 11.4228C12.1245 11.4898 12.1257 11.5609 12.1084 11.6286C12.0911 11.6963 12.0559 11.758 12.0064 11.8074C11.957 11.8567 11.8951 11.8918 11.8274 11.9089C11.7597 11.9263 11.6887 11.925 11.6217 11.9054C11.5547 11.8858 11.4943 11.8485 11.4467 11.7974L8.49589 8.84661C7.96787 9.28626 7.34173 9.59227 6.67043 9.73876C5.99914 9.88525 5.30244 9.86791 4.63926 9.68821C3.97609 9.5085 3.36595 9.17172 2.86045 8.70635C2.35496 8.24098 1.96898 7.66071 1.73517 7.01462C1.50136 6.36854 1.42659 5.67565 1.51719 4.99455C1.60779 4.31346 1.86109 3.66421 2.25567 3.10171C2.65025 2.53921 3.17449 2.08002 3.78407 1.76298C4.39364 1.44593 5.0706 1.28036 5.75769 1.28027ZM2.25716 5.5587C2.25716 6.0184 2.3477 6.47359 2.52362 6.8983C2.69954 7.323 2.95739 7.7089 3.28244 8.03395C3.6075 8.35901 3.99339 8.61686 4.4181 8.79277C4.8428 8.96869 5.298 9.05924 5.75769 9.05924C6.21739 9.05924 6.67258 8.96869 7.09729 8.79277C7.52199 8.61686 7.90789 8.35901 8.23294 8.03395C8.558 7.7089 8.81584 7.323 8.99176 6.8983C9.16768 6.47359 9.25822 6.0184 9.25822 5.5587C9.25822 4.6303 8.88942 3.73993 8.23294 3.08345C7.57647 2.42697 6.68609 2.05817 5.75769 2.05817C4.82929 2.05817 3.93892 2.42697 3.28244 3.08345C2.62596 3.73993 2.25716 4.6303 2.25716 5.5587Z" fill="white"/>
</g>
<defs>
<clipPath id="clip0_592_4348">
<rect width="12.4463" height="12.4463" fill="white" transform="translate(0.442078 0.243042)"/>
</clipPath>
</defs>
</svg>
