<svg width="9" height="11" viewBox="0 0 9 11" fill="none" xmlns="http://www.w3.org/2000/svg">
<path d="M0.733516 10.14C0.600182 10.14 0.480182 10.1 0.373516 10.02C0.280182 9.94 0.226849 9.83333 0.213516 9.7C0.213516 9.55333 0.280182 9.39333 0.413516 9.22L4.05352 4.66V5.32L0.653516 1.08C0.506849 0.906666 0.440182 0.753333 0.453516 0.62C0.466849 0.473333 0.520182 0.36 0.613516 0.279999C0.720182 0.2 0.833516 0.16 0.953516 0.16C1.11352 0.16 1.24685 0.193333 1.35352 0.26C1.46018 0.313333 1.56018 0.406666 1.65352 0.54L4.73352 4.42H4.29352L7.39352 0.54C7.48685 0.406666 7.58685 0.313333 7.69352 0.26C7.80018 0.193333 7.92685 0.16 8.07352 0.16C8.20685 0.16 8.32018 0.206666 8.41352 0.3C8.52018 0.379999 8.57352 0.486666 8.57352 0.62C8.58685 0.753333 8.52018 0.906666 8.37352 1.08L5.01352 5.28V4.72L8.61352 9.22C8.74685 9.39333 8.80685 9.54667 8.79352 9.68C8.79352 9.81333 8.74018 9.92 8.63352 10C8.54018 10.0933 8.42685 10.14 8.29352 10.14C8.14685 10.14 8.01352 10.1067 7.89352 10.04C7.78685 9.97333 7.68018 9.88 7.57352 9.76L4.29352 5.62H4.73352L1.43352 9.76C1.34018 9.88 1.23352 9.97333 1.11352 10.04C1.00685 10.1067 0.880182 10.14 0.733516 10.14Z" fill="white"/>
</svg>
